<svg width="45" height="45" viewBox="0 0 45 45" fill="none" xmlns="http://www.w3.org/2000/svg">
<path d="M22.5 22.5C24.9028 22.4409 26.895 21.6206 28.4766 20.0391C30.0581 18.4575 30.8784 16.4653 30.9375 14.0625C30.8784 11.6597 30.0581 9.66751 28.4766 8.08594C26.895 6.50438 24.9028 5.68407 22.5 5.62501C20.0972 5.68407 18.105 6.50438 16.5234 8.08594C14.9419 9.66751 14.1216 11.6597 14.0625 14.0625C14.1216 16.4653 14.9419 18.4575 16.5234 20.0391C18.105 21.6206 20.0972 22.4409 22.5 22.5ZM22.5 25.3125C19.3069 25.2244 16.6556 24.1256 14.5462 22.0163C12.4369 19.9069 11.3381 17.2556 11.25 14.0625C11.3381 10.8694 12.4369 8.21813 14.5462 6.10876C16.6556 3.99938 19.3069 2.90063 22.5 2.81251C25.6931 2.90063 28.3444 3.99938 30.4538 6.10876C32.5631 8.21813 33.6619 10.8694 33.75 14.0625C33.6619 17.2556 32.5631 19.9069 30.4538 22.0163C28.3444 24.1256 25.6931 25.2244 22.5 25.3125ZM36.5625 39.375V35.1563C36.5334 33.9553 36.1233 32.9592 35.332 32.168C34.5408 31.3767 33.5447 30.9666 32.3438 30.9375H12.6562C11.4553 30.9666 10.4592 31.3767 9.66797 32.168C8.87672 32.9592 8.46656 33.9553 8.4375 35.1563V39.375C8.4375 39.7856 8.30578 40.1227 8.04234 40.3861C7.77891 40.6495 7.44187 40.7813 7.03125 40.7813C6.62063 40.7813 6.28359 40.6495 6.02016 40.3861C5.75672 40.1227 5.625 39.7856 5.625 39.375V35.1563C5.68406 33.1641 6.37266 31.5089 7.69078 30.1908C9.00891 28.8727 10.6641 28.1841 12.6562 28.125H32.3438C34.3359 28.1841 35.9911 28.8727 37.3092 30.1908C38.6273 31.5089 39.3159 33.1641 39.375 35.1563V39.375C39.375 39.7856 39.2433 40.1227 38.9798 40.3861C38.7164 40.6495 38.3794 40.7813 37.9688 40.7813C37.5581 40.7813 37.2211 40.6495 36.9577 40.3861C36.6942 40.1227 36.5625 39.7856 36.5625 39.375Z" fill="#076151"/>
</svg>
